<svg id="logo-animation" width="4.1in" height="4.1in" viewBox="0 0 295.2 295.2">
  <g id="arrow-right">
    <polygon points="264.1 173.9 192 192.7 174.6 263.4 174.6 173.9 264.1 173.9"/>
    <path d="M209.9 210.7c.1 27 27.3 54 54.4 54.1 0-26.7-27.3-54.1-54.4-54.1z"/>
  </g>
  <g id="arrow-left">
    <polygon points="30.8 120.8 102.9 102 120.3 31.3 120.3 120.8 30.8 120.8"/>
    <path d="M85 84c-.1-27-27.4-54-54.4-54.1C30.6 56.6 57.9 84 85 84z"/>
  </g>
  <g id="center">
    <g id="a">
      <path fill="#010101" d="M291.6 2.7V3a144.2 144.2 0 0 1-144.2 144.3v-.3A144.2 144.2 0 0 1 291.6 2.7z"/>
      <path fill="none" stroke="#fff" stroke-miterlimit="10" stroke-width="15" d="M286.2 50.7H231a10.8 10.8 0 0 0-10.8 10.8l.4 70.8"/>
      <path fill="none" stroke="#fff" stroke-miterlimit="10" stroke-width="12.9" d="M271.6 85.8l-45.5.4"/>
    </g>
    <g id="r">
      <path fill="#010101" d="M147.1 147.5v.3A144.2 144.2 0 0 1 2.9 292v-.3a144.2 144.2 0 0 1 144.2-144.2z"/>
      <path fill="none" stroke="#fff" stroke-miterlimit="10" stroke-width="15" d="M81.6 274.8l-33.1-33.1v-8H81c14.6 0 15.3-30 .7-30-12.5 0-58.2-1.9-58.2-1.9"/>
    </g>
  </g>
</svg>
