<svg xmlns="http://www.w3.org/2000/svg" width="2in" height="2in" viewBox="0 0 144 144"><title>Interaction</title><g id="Layer_8" data-name="Layer 8"><circle cx="26.8" cy="53.4" r="12.2" stroke="#6b9ed2" stroke-miterlimit="10" stroke-width="5.59"/><circle cx="109.4" cy="71.2" r="20.8" fill="#6b9ed2" stroke="#000" stroke-miterlimit="10" stroke-width="5.59"/><polyline points="26.6 34.3 26.6 18.9 110 18.9 110 42" fill="none" stroke="#000" stroke-linecap="round" stroke-miterlimit="10" stroke-width="2.79"/><line x1="40.5" y1="33.3" x2="40.5" y2="31.6" fill="none" stroke="#427fc2" stroke-miterlimit="10" stroke-width="0.56"/><polyline points="40.5 29.4 40.5 27.7 42.2 27.7" fill="none" stroke="#427fc2" stroke-miterlimit="10" stroke-width="0.56"/><line x1="45.7" y1="27.7" x2="92.6" y2="27.7" fill="none" stroke="#427fc2" stroke-miterlimit="10" stroke-width="0.56" stroke-dasharray="3.48 3.48"/><polyline points="94.4 27.7 96 27.7 96 29.4" fill="none" stroke="#427fc2" stroke-miterlimit="10" stroke-width="0.56"/><line x1="96" y1="32.1" x2="96" y2="36" fill="none" stroke="#427fc2" stroke-miterlimit="10" stroke-width="0.56" stroke-dasharray="2.64 2.64"/><line x1="96" y1="37.3" x2="96" y2="39" fill="none" stroke="#427fc2" stroke-miterlimit="10" stroke-width="0.56"/><path d="M40.5,36.6a16.9,16.9,0,0,1,2.7-4.7l-2.7.9-2.6-.9A19.5,19.5,0,0,1,40.5,36.6Z" fill="#427fc2"/><line x1="99.6" y1="102.8" x2="99.6" y2="104.5" fill="none" stroke="#000" stroke-miterlimit="10" stroke-width="0.56"/><polyline points="99.6 104.8 99.6 106.5 97.9 106.5" fill="none" stroke="#000" stroke-miterlimit="10" stroke-width="0.56"/><line x1="94.4" y1="106.5" x2="40.5" y2="106.5" fill="none" stroke="#000" stroke-miterlimit="10" stroke-width="0.56" stroke-dasharray="3.48 3.48"/><polyline points="38.7 106.5 37 106.5 37 104.8" fill="none" stroke="#000" stroke-miterlimit="10" stroke-width="0.56"/><line x1="37" y1="101.3" x2="37" y2="74.6" fill="none" stroke="#000" stroke-miterlimit="10" stroke-width="0.56" stroke-dasharray="3.56 3.56"/><line x1="37" y1="72.8" x2="37" y2="71.1" fill="none" stroke="#000" stroke-miterlimit="10" stroke-width="0.56"/><polygon points="99.6 98.9 97.3 104.4 99.6 103.1 101.9 104.4 99.6 98.9"/><polyline points="110 100.5 110 115.5 26.6 115.5 26.6 72.4" fill="none" stroke="#000" stroke-linecap="round" stroke-miterlimit="10" stroke-width="2.79"/></g></svg>