<svg id="laptop" xmlns="http://www.w3.org/2000/svg" width="2in" height="2in" viewBox="0 0 144 144"><title>laptop</title><path d="M131.6,36.3H11.7a2.9,2.9,0,0,0-2.9,2.8v66.3a2.9,2.9,0,0,0,2.9,2.9H131.6a2.9,2.9,0,0,0,3-2.9V39.1A2.9,2.9,0,0,0,131.6,36.3Zm-.3,67.6H12.1V40.7H131.3Z" fill="#231f20" stroke="#fff" stroke-miterlimit="10" stroke-width="0.25"/><path d="M139.2,112.8H4.1a2,2,0,0,0-2.1,2v4.9a2.1,2.1,0,0,0,2.1,2.1H53.3a.5.5,0,0,0,.5-.5v-.8a3.2,3.2,0,0,1,3.2-3.2H86.5a3.2,3.2,0,0,1,3.2,3.2v.8a.5.5,0,0,0,.5.5h49a2.1,2.1,0,0,0,2.1-2.1v-4.9A2,2,0,0,0,139.2,112.8Z" fill="#231f20" stroke="#fff" stroke-miterlimit="10" stroke-width="0.25"/><path d="M79.9,62.2h7.7a19.7,19.7,0,0,0,1.2-6c-3.1,0-9.6,2.8-12.8,6s-5.3,6.2-5.3,12.1a17.7,17.7,0,0,0,7.6-1.6V63.9A1.7,1.7,0,0,1,79.9,62.2Z"/><path d="M80.6,68.7v3.2a16.8,16.8,0,0,0,3.3-3.2l.3-.3H80.9A.3.3,0,0,0,80.6,68.7Z"/><path d="M80.9,64.5c-.2,0-.3.2-.3.4v1.3a.3.3,0,0,0,.3.3h4.5a12.8,12.8,0,0,0,1.1-2Z"/><path d="M70.7,74.3a17.5,17.5,0,0,0-13.1,5.5l-.5.5h5.7a1.9,1.9,0,0,1,1.9,1.9V84c0,.8-.9,1.6-1.5,1.5H60.9L63.2,88a10.6,10.6,0,0,0,2.3-1.7C68.7,83.1,70.7,80.2,70.7,74.3Z"/><path d="M58,85.5V84.1a.3.3,0,0,1,.3-.3h3.9c.9,0,1.1-.1,1.1-.9h0c0-.9-.2-.9-1.1-.9H56a21.5,21.5,0,0,0-3.3,10.3c2,0,5.7-1.3,8.9-3.1L58,85.5Z"/><path d="M63.4,85.5Z" fill="#fff"/><polygon points="84.3 76.6 74.5 78.1 73 87.8 73 76.6 84.3 76.6"/><path d="M76.7,80.3c3,0,7.6,5.2,7.6,7.5C82,87.8,76.7,83.3,76.7,80.3Z"/><path d="M56.4,59.9c3,0,7.6,5.3,7.6,7.6C61.7,67.5,56.4,63,56.4,59.9Z"/><polygon points="57.2 72 67 70.5 68.5 60.7 68.5 72 57.2 72"/></svg>