<svg xmlns="http://www.w3.org/2000/svg" width="4in" height="4in" viewBox="0 0 288 288"><path fill="#f29592" d="M59.4 194.2V73.5h51.1a34.5 34.5 0 0 1 15.4 3.5 39.7 39.7 0 0 1 12.2 9.2 43 43 0 0 1 8 12.9 39.5 39.5 0 0 1 2.9 14.5 43.1 43.1 0 0 1-10.4 27.7 36.4 36.4 0 0 1-11.9 9 33.7 33.7 0 0 1-15.3 3.4H82.8v40.5zm23.4-61H110a13.5 13.5 0 0 0 10.8-5.3c2.9-3.5 4.4-8.3 4.4-14.3a23.5 23.5 0 0 0-1.4-8.2 18.8 18.8 0 0 0-3.6-6.2 13.4 13.4 0 0 0-5.1-3.8 14.6 14.6 0 0 0-6.1-1.3H82.8zm113.4 62.7a89.6 89.6 0 0 1-11.3-.8 104.6 104.6 0 0 1-11.4-2.4 72.4 72.4 0 0 1-10.8-3.8 47.8 47.8 0 0 1-9-4.9l9.2-15.5c11.3 7.4 22.3 11.1 32.8 11.1 4.8 0 8.5-.9 11.2-2.6a8 8 0 0 0 4.1-7.3c0-3.1-1.6-5.5-4.8-7s-8.7-3.2-16.3-5a145.3 145.3 0 0 1-14.8-4.3 38.8 38.8 0 0 1-9.8-5.1 18 18 0 0 1-5.5-6.6 22.1 22.1 0 0 1-1.7-8.9 27.1 27.1 0 0 1 2.8-12.2 28 28 0 0 1 7.5-9.3 36.1 36.1 0 0 1 11.4-5.8 46.4 46.4 0 0 1 14.2-2.1 62.3 62.3 0 0 1 19 3 78.2 78.2 0 0 1 17.6 8.1l-9.4 14.1a60.7 60.7 0 0 0-14.1-6.9 43.5 43.5 0 0 0-13.3-2.1 20 20 0 0 0-10.2 2.4c-2.8 1.5-4.2 4.1-4.2 7.6a6.7 6.7 0 0 0 4 6.6c2.7 1.4 7.4 2.9 14.2 4.6s11.7 3.2 16.2 4.8a47.8 47.8 0 0 1 11.1 5.4 19.1 19.1 0 0 1 6.3 7.1 21.3 21.3 0 0 1 1.9 9.6 26.4 26.4 0 0 1-2.6 11.7 25.4 25.4 0 0 1-7.4 8.9 33.6 33.6 0 0 1-11.7 5.7 55 55 0 0 1-15.2 1.9z"/><path fill="none" stroke="#f29592" stroke-linecap="round" stroke-miterlimit="10" stroke-width="12" d="M16 15h252v252H16z"/></svg>