<svg xmlns="http://www.w3.org/2000/svg" width="6in" height="9in" viewBox="0 0 432 648"><path fill="#857b92" stroke="#eee9f2" stroke-miterlimit="10" d="M82.5 608.8L216 637.9c10.2 2.2 20.6.9 27.9-3.6l63.6-38.8c9.2-5.6 11.9-15.2 6.8-24.3l-27.5-48.5c-2.9-5.3-8.3-9.9-15.1-12.9l-114.9-52.4c-17.4-7.9-38.5-3.8-44.7 8.7L57.5 576.6c-6.3 12.7 5.6 27.9 25 32.2z"/><path fill="#b4a7c6" d="M290.9 364h-.1l-127.7-9.8s14.6 74.8-2.3 86.7l-1.1.9c32.9 8.7 118.6 21.5 131.2-77.8z"/><path fill="#eee9f2" d="M290.9 364c-12.6 99.3-98.3 86.5-131.2 77.7-12.2 12.9 58 50.1 58 50.1l87-35.6z"/><path fill="#575068" d="M114.9 85.5s-57.8 40.4-38.1 110.8c-18.5 31.2-79.2 37.4-40.4 121.2C72.1 394.9.6 336 .6 424.9 39 526-8.6 547.7 26 565.6c31.9 16.5 31.5 46.6 43.5 54 7.5 4.6 69.6-35.4 85.7-52.8s-27.1-30-10.9-63.4 24.8-32.4 35.2-57.8-1.2-75-9.2-84.2-56.4-123.9-45.6-154.7c7-20.1 43.2-70.4 54.8-85.4s-13.9-83.1-64.6-35.8z"/><path fill="#eee9f2" d="M114.9 85.6a94.9 94.9 0 0 0-11.6 10.3 127 127 0 0 0-10.1 11.9 105.6 105.6 0 0 0-14.6 27.3 96.2 96.2 0 0 0-5.6 30.5 109.2 109.2 0 0 0 4.2 30.6v.4a63.2 63.2 0 0 1-11.1 13.1c-4.1 3.9-8.6 7.4-13 11.1a169.1 169.1 0 0 0-12.6 11.3 65.5 65.5 0 0 0-10.1 13.4 52.3 52.3 0 0 0-5.3 15.9 63 63 0 0 0-.1 16.8 105.4 105.4 0 0 0 3.5 16.5 151.2 151.2 0 0 0 5.8 15.9c2.2 5.2 4.7 10.3 6.8 15.6 1.1 2.7 2.1 5.3 3 8.1a72.2 72.2 0 0 1 2.3 8.3 35.7 35.7 0 0 1 .8 8.7 16 16 0 0 1-2.9 8.4 20 20 0 0 1-6.9 5.4c-2.6 1.4-5.2 2.5-7.8 3.7-5.1 2.3-10.1 5-14.1 8.9a40.4 40.4 0 0 0-9.1 13.9 57.4 57.4 0 0 0-2.6 8c-.6 2.8-1.2 5.6-1.5 8.3a137.4 137.4 0 0 0-1.2 17v-.2c6.8 17.9 12 36.5 14.4 55.6a152.9 152.9 0 0 1 1.2 28.7c-.2 4.8-.7 9.6-1.3 14.4s-1.3 9.5-2 14.2-1.1 9.6 0 14.2a15.8 15.8 0 0 0 3.1 6.2 21.6 21.6 0 0 0 5.3 4.7 62.7 62.7 0 0 0 6.2 3.6c2.1 1.2 4.1 2.4 6.1 3.8a61.8 61.8 0 0 1 10.8 9.6 69.6 69.6 0 0 1 8.3 11.8c2.4 4.2 4.5 8.5 6.5 12.9 1 2.1 2 4.3 3.1 6.4a34 34 0 0 0 4 5.9 18.4 18.4 0 0 0 2.5 2.3l.4.2h.3l.8.2h1.7a43.1 43.1 0 0 0 6.7-2.1c4.4-1.9 8.6-4.1 12.8-6.4s8.3-4.7 12.4-7.2c8.2-5 16.2-10.3 24-15.8a273.4 273.4 0 0 0 22.5-17.7l2.6-2.5a28.5 28.5 0 0 0 2.3-2.6 10.2 10.2 0 0 0 2.4-6.1 14.1 14.1 0 0 0-1.7-6.6 54.8 54.8 0 0 0-3.8-6 99.6 99.6 0 0 1-8.1-11.9 35.4 35.4 0 0 1-4.7-13.8 32.7 32.7 0 0 1 2.2-14.5c.9-2.3 2-4.4 3.1-6.6s2.2-4.2 3.3-6.4l1.8-3.1 1.8-3.1c1.3-2.1 2.5-4.1 3.9-6.1 2.7-4 5.6-7.8 8.6-11.6a100.9 100.9 0 0 0 8-11.7 107.6 107.6 0 0 0 6.2-12.8A58.9 58.9 0 0 0 182 431a95.8 95.8 0 0 0 .6-14.2 158.7 158.7 0 0 0-3.5-28.3 132 132 0 0 0-3.7-13.7 54 54 0 0 0-2.5-6.7 24.5 24.5 0 0 0-3.4-5.9 42.2 42.2 0 0 1-3.8-6.3c-1.2-2.2-2.2-4.3-3.3-6.5-2.1-4.3-4-8.7-5.9-13.1-7.6-17.6-14.4-35.6-20.5-53.8-2.9-9.1-5.7-18.3-8.1-27.7a207.5 207.5 0 0 1-5.3-28.3 71.2 71.2 0 0 1 0-14.6c.2-1.2.4-2.4.7-3.6a12.1 12.1 0 0 1 .5-1.8l.7-1.7a66.2 66.2 0 0 1 3-6.6 255.8 255.8 0 0 1 14.6-24.8c10.5-16.1 21.6-31.7 33.1-47.1l4.3-5.7a15.2 15.2 0 0 0 2.2-6.6 39.6 39.6 0 0 0-1.3-14.1 52.4 52.4 0 0 0-5.4-13.2 39.8 39.8 0 0 0-9.1-10.9 28.9 28.9 0 0 0-12.7-6.1 29.8 29.8 0 0 0-14.2.9 48.5 48.5 0 0 0-12.8 6.1 80.4 80.4 0 0 0-11.3 8.9zm-.1-.2a87.5 87.5 0 0 1 11.2-8.9 50.2 50.2 0 0 1 13-6.2 29.8 29.8 0 0 1 14.2-1 29.1 29.1 0 0 1 13 6.2 40.6 40.6 0 0 1 9.2 11 48.8 48.8 0 0 1 5.6 13.3 40.5 40.5 0 0 1 1.4 14.3 17.4 17.4 0 0 1-2.2 7l-4.3 5.7c-11.4 15.5-22.3 31.2-32.6 47.4-2.5 4-5 8.1-7.4 12.2s-4.8 8.3-6.9 12.5a61.7 61.7 0 0 0-2.9 6.5 26.2 26.2 0 0 0-1.8 6.8 66.6 66.6 0 0 0 .2 14.1 193.5 193.5 0 0 0 5.4 28.1c2.3 9.2 5.1 18.4 8.1 27.4q9 27.3 20.4 53.7c1.9 4.3 3.9 8.7 5.9 13 1.1 2.2 2.1 4.3 3.2 6.4a42 42 0 0 0 3.6 5.9 26.9 26.9 0 0 1 3.8 6.5c.9 2.2 1.8 4.5 2.5 6.8a137.4 137.4 0 0 1 3.7 14 162 162 0 0 1 3.5 28.7 117.2 117.2 0 0 1-.6 14.5 58.8 58.8 0 0 1-3.4 14.2 129.6 129.6 0 0 1-6.3 13 97.5 97.5 0 0 1-8.3 11.9c-2.9 3.8-5.8 7.6-8.5 11.5a136.5 136.5 0 0 0-7.4 12.2c-1.2 2.1-2.3 4.2-3.4 6.3s-2.2 4.3-3 6.4a30.9 30.9 0 0 0-2.2 13.7 33.2 33.2 0 0 0 4.4 13.3 128.9 128.9 0 0 0 8 11.8 64.1 64.1 0 0 1 3.8 6.2 14.9 14.9 0 0 1 1.9 7.2 12.6 12.6 0 0 1-2.7 7l-2.5 2.7-2.6 2.5a261.9 261.9 0 0 1-22.8 17.7c-7.8 5.5-15.8 10.7-24 15.7-4.1 2.5-8.3 4.9-12.5 7.2s-8.5 4.5-12.9 6.4a40.5 40.5 0 0 1-7 2.1 5.9 5.9 0 0 1-1.9.1 1.8 1.8 0 0 1-1-.2l-.5-.2-.4-.3a15.5 15.5 0 0 1-2.7-2.4 34.3 34.3 0 0 1-4.1-6.1c-1.1-2.1-2.1-4.3-3.1-6.5-2-4.3-4-8.7-6.4-12.8a79.3 79.3 0 0 0-8.2-11.7 68.5 68.5 0 0 0-10.6-9.5c-2-1.4-4-2.6-6.1-3.8a66.1 66.1 0 0 1-6.2-3.6 22.9 22.9 0 0 1-5.4-4.9 17.2 17.2 0 0 1-3.2-6.5 25.1 25.1 0 0 1-.6-7.2q.2-3.6.6-7.2c.6-4.7 1.4-9.5 2-14.2s1-9.5 1.2-14.3a160.7 160.7 0 0 0-1.2-28.6c-2.5-19-7.9-37.5-14.7-55.3a.3.3 0 0 1-.1-.2 140.1 140.1 0 0 1 1-17.1 79.6 79.6 0 0 1 1.6-8.5 59.6 59.6 0 0 1 2.5-8.2 40.4 40.4 0 0 1 9.4-14.4c4.1-4.1 9.3-7 14.5-9.4 2.5-1.2 5.1-2.3 7.6-3.6a18.8 18.8 0 0 0 6.4-5 13.5 13.5 0 0 0 2.5-7.5 33.4 33.4 0 0 0-.8-8.3 60.9 60.9 0 0 0-2.2-8.1c-.9-2.7-1.9-5.3-3-7.9-2.1-5.3-4.6-10.3-6.9-15.6a154.5 154.5 0 0 1-5.8-16.1 105.6 105.6 0 0 1-3.5-16.9 62 62 0 0 1 .3-17.2 47.7 47.7 0 0 1 5.5-16.3 63.5 63.5 0 0 1 10.4-13.7 152.1 152.1 0 0 1 12.8-11.3c4.5-3.6 8.9-7.1 13.1-10.9a58.3 58.3 0 0 0 11-12.8v.4a108.1 108.1 0 0 1-3.9-31 93.7 93.7 0 0 1 5.7-30.5A106.9 106.9 0 0 1 93 107.6a125.8 125.8 0 0 1 10.1-11.8 104.8 104.8 0 0 1 11.7-10.4z"/><path fill="#eee9f2" stroke="#b4a7c6" stroke-miterlimit="10" stroke-width="2" d="M361.3 637.3l-122.2 3.2a29.6 29.6 0 0 1-22.7-13.2l-42.9-66.1a26.3 26.3 0 0 1 1.2-30.8l30.6-32.5c4-5.3 56.3-36.4 62.9-37.9l45-7.8c17.1-3.8 62.4 2.1 64 18.9l18.6 127.8c2.9 33.1-1.6 38.5-34.5 38.4z"/><path fill="#b4a7c6" d="M216.323 554.325l34.136 3.347-.736 7.504-34.136-3.347z"/><ellipse cx="234.6" cy="550.6" fill="#575068" rx="16.9" ry="16.3" transform="rotate(-84.4 234.665 550.694)"/><path fill="#575068" d="M336.5 156.1s-2.8 166.7-54.7 225.6 34.6 76.2 19.6 101.5-56.6 45.1-41.6 65.8 69.3 20.8 64.7 48.5-9.3 28.9 20.7 16.2 60.1 0 63.5-24.3-26.5-42.7-21.9-78.5 46.2-72.1 42.7-89.4-34.6-50.2-28.9-81.4 20.1-35.6-6.9-95.8c-20-44.6-26.6-75.4-26.9-90-.8-40.8-20-30.5-30.3 1.8z"/><path fill="#eee9f2" d="M336.6 156.1c-.3 12.3-.9 24.6-1.7 36.8s-2 24.5-3.5 36.7c-2.9 24.4-6.8 48.7-12.8 72.5a333.6 333.6 0 0 1-11 35.2c-4.4 11.5-9.5 22.8-16.3 33.2q-2.6 3.9-5.4 7.5c-1.9 2.5-4 4.8-5.9 7.1a74.6 74.6 0 0 0-10 15.1 39.5 39.5 0 0 0-4.2 17.4 34.1 34.1 0 0 0 5.1 17 71.1 71.1 0 0 0 11.4 14.2c4.2 4.4 8.8 8.5 13.1 13a40.9 40.9 0 0 1 5.7 7.3 14.5 14.5 0 0 1 2.6 9.1 13.9 13.9 0 0 1-1.4 4.5c-.8 1.4-1.6 2.7-2.5 4s-3.7 4.9-5.7 7.3c-8.2 9.2-17.8 17-26.2 25.9a66.2 66.2 0 0 0-5.9 7 30.6 30.6 0 0 0-4.2 8 13.2 13.2 0 0 0-.8 4.4 13 13 0 0 0 .5 4.4 19.8 19.8 0 0 0 4.7 7.7c4.2 4.4 9.7 7.4 15.2 10s11.3 4.7 17 6.9a133.8 133.8 0 0 1 16.9 7.5 39.8 39.8 0 0 1 7.6 5.3 19.4 19.4 0 0 1 5.3 7.6 17.4 17.4 0 0 1 .6 9.3c-.5 3-1 6.1-1.6 9.1s-1.2 6-1.5 9a8.3 8.3 0 0 0-.1 2.2 3.1 3.1 0 0 0 .5 2 2.4 2.4 0 0 0 1.6.7l2.2-.3a59.3 59.3 0 0 0 8.6-3.1l8.4-3.5a79.2 79.2 0 0 1 17.7-5.6 141 141 0 0 1 18.3-2.4l9.1-1a51.1 51.1 0 0 0 8.8-2 15.8 15.8 0 0 0 7.4-4.6 17.7 17.7 0 0 0 3.6-8 26.6 26.6 0 0 0 .1-8.9 37.2 37.2 0 0 0-2.3-8.7 139.4 139.4 0 0 0-8.2-16.4 128.5 128.5 0 0 1-8-16.7 62.3 62.3 0 0 1-3.9-18.1 58.1 58.1 0 0 1 1.9-18.6 88.2 88.2 0 0 1 6.6-17.3c2.8-5.5 5.9-10.9 9.2-16.1s6.7-10.3 10.1-15.4 6.8-10.2 9.8-15.5a60.9 60.9 0 0 0 4-8.1c1-2.8 1.8-5.7 1.4-8.4a31.9 31.9 0 0 0-2.8-8.4c-1.3-2.8-2.8-5.5-4.2-8.1-6-10.7-12.5-21.2-17.1-32.8a77.9 77.9 0 0 1-5-17.9 49 49 0 0 1-.4-9.4 24 24 0 0 1 .5-4.6c.2-1.6.5-3.1.8-4.6 1.3-6.1 3.2-12 5-17.8a65 65 0 0 0 3.3-17.8 68.5 68.5 0 0 0-1.9-18 154.8 154.8 0 0 0-5.3-17.6c-2-5.7-4.3-11.4-6.8-17s-4.9-11.2-7.2-16.9c-4.7-11.4-9-22.9-12.6-34.7-1.8-5.9-3.5-11.8-4.8-17.8a159.8 159.8 0 0 1-3.3-18.1c-.3-3.1-.4-6.2-.4-9.3s-.4-6.1-.8-9.1a38 38 0 0 0-2.3-8.8 13.6 13.6 0 0 0-2.4-3.8 6 6 0 0 0-3.8-1.9 7.9 7.9 0 0 0-4.2 1.2 19.3 19.3 0 0 0-3.5 2.9 40.2 40.2 0 0 0-5.4 7.4 85.4 85.4 0 0 0-7.3 16.7zm-.2 0a78.9 78.9 0 0 1 7.2-16.9 33.3 33.3 0 0 1 5.4-7.5 14.3 14.3 0 0 1 3.5-3 8.2 8.2 0 0 1 4.5-1.4 6.8 6.8 0 0 1 4.3 2.1 12.8 12.8 0 0 1 2.5 4 39 39 0 0 1 2.4 8.9 69.9 69.9 0 0 1 .9 9.2c.1 3.1.2 6.1.6 9.2a162.3 162.3 0 0 0 3.3 18c1.4 5.9 3.1 11.8 4.9 17.7 3.7 11.7 8 23.1 12.8 34.4 2.3 5.7 4.8 11.3 7.3 16.9s4.9 11.3 7 17.1a157 157 0 0 1 5.4 17.7 71.2 71.2 0 0 1 2.1 18.4c-.1 6.3-1.6 12.4-3.3 18.3s-3.6 11.8-4.9 17.7c-.3 1.5-.6 3-.8 4.5a32.9 32.9 0 0 0-.5 4.4 45.2 45.2 0 0 0 .4 9 77.3 77.3 0 0 0 4.9 17.5c4.5 11.3 11 21.7 17 32.5 1.5 2.6 3 5.4 4.3 8.2a32.9 32.9 0 0 1 3 9c.5 3.3-.4 6.5-1.5 9.5a81.6 81.6 0 0 1-4.1 8.4c-3.1 5.3-6.6 10.4-10 15.5s-6.9 10.2-10.1 15.4a155.6 155.6 0 0 0-9.1 15.9 94 94 0 0 0-6.6 16.9 57.5 57.5 0 0 0-1.9 18 63 63 0 0 0 3.8 17.6 146 146 0 0 0 7.8 16.5c2.9 5.4 6 10.8 8.2 16.6a40.7 40.7 0 0 1 2.4 9.1 29.7 29.7 0 0 1-.3 9.4 17.3 17.3 0 0 1-3.9 8.6 18.7 18.7 0 0 1-8 5 42.4 42.4 0 0 1-9.1 2l-9.2.9c-6.1.6-12.2 1.1-18.2 2.3a87.7 87.7 0 0 0-17.4 5.4l-8.5 3.6a83.1 83.1 0 0 1-8.8 3.1 9.7 9.7 0 0 1-2.4.2 3 3 0 0 1-2.4-1.1 5.5 5.5 0 0 1-.7-2.4 19.3 19.3 0 0 1 .1-2.4c.4-3.1 1-6.1 1.6-9.1s1.1-6 1.6-9a16.8 16.8 0 0 0-.5-8.9 17.6 17.6 0 0 0-5.1-7.3 35.6 35.6 0 0 0-7.4-5.3 157.2 157.2 0 0 0-16.7-7.5c-5.7-2.2-11.5-4.4-17.1-7s-11-5.6-15.4-10.1a19.4 19.4 0 0 1-4.8-7.9 11.9 11.9 0 0 1-.6-4.6 14.4 14.4 0 0 1 .8-4.6 30.8 30.8 0 0 1 4.4-8.2 67.3 67.3 0 0 1 5.9-7.1c8.4-9 17.9-16.8 25.9-26.1a77.2 77.2 0 0 0 5.6-7.2 41.1 41.1 0 0 0 2.4-3.9 10.2 10.2 0 0 0 1.2-4.1 13.3 13.3 0 0 0-2.4-8.4 47.2 47.2 0 0 0-5.7-7c-4.2-4.4-8.8-8.5-13.1-12.9a73.8 73.8 0 0 1-11.7-14.4 35.8 35.8 0 0 1-5.5-17.8 41.9 41.9 0 0 1 4.3-18.1 79.8 79.8 0 0 1 10.2-15.5c2-2.4 4.1-4.6 5.9-7.1s3.6-4.9 5.3-7.4c6.7-10.2 11.8-21.4 16.2-32.8a302.3 302.3 0 0 0 11-35 588.2 588.2 0 0 0 13.4-72.2c3-24.4 5.1-48.8 6-73.4zm-211.3 89.4c-3.1-1.2-19.2-23.1-33.8-3s13.3 53 17.8 58.5 14.2 9.9 17.3 5.5 13.5-55.3-1.3-61z"/><path fill="#eee9f2" d="M339.3 249.5c3.2-.8 22.1-20.3 33.9 1.7s-20.3 50.6-25.6 55.5-15.4 7.9-17.9 3.1-5.9-56.6 9.6-60.3z"/><path fill="#eee9f2" stroke="#b4a7c6" stroke-miterlimit="10" stroke-width="2" d="M115.8 211.1s-8.4 104.9 46.9 149.6c44.5 36 53.7 41.6 79.3 40.8s75.1-50.5 90.9-99.4 11.1-141.1-2.4-161-119.7-85.8-149.1-60.6-.1 22.1-12.9 43.5-49 55.8-52.7 87.1z"/><path fill="#575068" stroke="#eee9f2" stroke-miterlimit="10" stroke-width="2" d="M207.8 344.1c8 5.9 36.3 10.2 55.7.3-17.9-5.8-35.1-11.8-55.7-.3z"/><path fill="none" stroke="#575068" stroke-linecap="round" stroke-linejoin="round" d="M218.5 354.5c8.5 7.1 27.8 4.4 32.9 0"/><path fill="#575068" d="M264.2 210.9c10.8.1 21.5.2 32.3.7l8.2.6 2.1.3a12.9 12.9 0 0 1 2.1.5l2.1.7 1.9.8a69.2 69.2 0 0 1 13.7 8.7 67.5 67.5 0 0 0-14.6-6.4l-1.8-.4-1.9-.4h-3.7l-7.9.6c-10.6 1.2-21.3 2.7-31.8 4.2h-.1a5 5 0 0 1-1.4-9.9zm-65.8 8.5l-16-4.9c-5.3-1.6-10.7-3.1-16.1-4.4a78.1 78.1 0 0 0-7.9-1.5h-1.8l-1.8.4a18.6 18.6 0 0 0-3.8 1.2 56.4 56.4 0 0 0-7.3 3.8 77.6 77.6 0 0 0-6.8 4.9c1.9-2.1 4-4 6.1-5.9a57.8 57.8 0 0 1 6.9-5 17.9 17.9 0 0 1 3.9-2l2.2-.7 1.3-.2 1.1-.2a80.7 80.7 0 0 1 8.7.4c5.7.5 11.3 1.2 16.9 2s11.1 1.6 16.7 2.4a5.1 5.1 0 0 1-1.6 10l-.7-.2z"/><path fill="#fbfdfe" stroke="#575068" stroke-linecap="round" stroke-linejoin="round" stroke-width=".5" d="M200.6 252.9c0 2.8-3.3 5.1-7.3 5.1H165c-3.4 0-6.2-2-6.2-4.4"/><path fill="#fbfdfe" d="M158.8 254.1V253a16 16 0 0 1 15.9-16h10a16 16 0 0 1 15.9 16"/><path fill="#575068" d="M158.8 254.1a15.2 15.2 0 0 1 4.9-14.7 16.6 16.6 0 0 1 7.4-3.9 14.6 14.6 0 0 1 2.2-.3l2-.2h9.6a14.9 14.9 0 0 1 2.1.2 16.2 16.2 0 0 1 7.7 3.3 16.5 16.5 0 0 1 5 6.5 14.4 14.4 0 0 1 .9 7.9 17.4 17.4 0 0 0-2.6-6.9 14.9 14.9 0 0 0-5.1-4.9 14.3 14.3 0 0 0-6.4-2.1h-12.9l-1.7.2a16.1 16.1 0 0 0-6.2 2.6 15.7 15.7 0 0 0-4.7 5.2 20.3 20.3 0 0 0-2.2 7.1z"/><circle cx="180" cy="247.9" r="8.6" fill="#575068"/><circle cx="179.7" cy="243.8" r="2.9" fill="#e7ebf2"/><circle cx="184.6" cy="246.9" r="1.5" fill="#e7ebf2"/><path fill="#fbfdfe" stroke="#575068" stroke-linecap="round" stroke-linejoin="round" stroke-width=".5" d="M270.2 253.3c0 2.6 3.3 4.7 7.4 4.7h28.3c3.4 0 6.2-1.8 6.2-4"/><path fill="#fbfdfe" d="M312.1 254.5v-1.1a16 16 0 0 0-15.9-16h-10a16 16 0 0 0-16 16"/><path fill="#575068" d="M312.1 254.5a20.3 20.3 0 0 0-2.2-7.1 16.7 16.7 0 0 0-4.7-5.2 16.1 16.1 0 0 0-6.2-2.6l-1.7-.2h-13a15.1 15.1 0 0 0-6.4 2.1 15.6 15.6 0 0 0-5 4.9 19.2 19.2 0 0 0-2.7 6.9 15 15 0 0 1 1-7.8 15.9 15.9 0 0 1 4.9-6.6 17.7 17.7 0 0 1 7.7-3.3l2.2-.2h11.6l2.1.3a17.4 17.4 0 0 1 7.5 3.9 16.9 16.9 0 0 1 4.5 6.8 16.4 16.4 0 0 1 .4 8.1z"/><circle cx="290.8" cy="248.3" r="8.6" fill="#575068"/><circle cx="291.2" cy="244.2" r="2.9" fill="#e7ebf2"/><circle cx="286.3" cy="247.3" r="1.5" fill="#e7ebf2"/><path fill="#575068" d="M245 157.1c-62.3-17.3-83.1-46.2-98.4-47.7s-44.7-1.6-43.1-20 55.3-103.6 147.3-76.6C357 44 366.4 112.2 363.5 126.1c-1.6 7.3 3.9 36.8-68.4 36.8-12.4 0-50.1-5.8-50.1-5.8z"/><path fill="#eee9f2" d="M245 157.1a252.1 252.1 0 0 1-38.4-14 249.8 249.8 0 0 1-35.6-20.3c-2.8-1.9-5.6-3.9-8.5-5.7a88.2 88.2 0 0 0-8.8-5.2 20.7 20.7 0 0 0-4.7-1.8 22.4 22.4 0 0 0-5.1-.7l-10.2-.8c-3.4-.4-6.8-.8-10.2-1.4a50.5 50.5 0 0 1-9.9-2.8 18.1 18.1 0 0 1-8.3-6.1 10.8 10.8 0 0 1-2.1-4.9 18.1 18.1 0 0 1-.1-5.2 45.4 45.4 0 0 1 3.4-9.8 98.4 98.4 0 0 1 4.8-9.1 133.4 133.4 0 0 1 12-16.7A137.9 137.9 0 0 1 154 25.3a111.4 111.4 0 0 1 78.9-17.4 126.8 126.8 0 0 1 20.1 4.5c6.5 2 13 4.3 19.4 6.7a200.8 200.8 0 0 1 36.7 18.6 137.4 137.4 0 0 1 31.1 26.8 107.7 107.7 0 0 1 20.4 35.5 74.2 74.2 0 0 1 3.7 20.3 29.1 29.1 0 0 1-.3 5.1 44.6 44.6 0 0 0-.7 5.1 29.4 29.4 0 0 1-2.5 10 27.4 27.4 0 0 1-6.1 8.2 38.2 38.2 0 0 1-8.6 5.8 73.1 73.1 0 0 1-19.6 6 138.5 138.5 0 0 1-20.3 2.2c-3.4.2-6.9.2-10.3.2a87.1 87.1 0 0 1-10.2-.5c-13.6-1.3-27.1-3.3-40.7-5.3zm0 0c13.6 2 27.1 3.9 40.7 5.1 3.4.3 6.8.6 10.2.6l10.3-.3a153.6 153.6 0 0 0 20.3-2.2 73.2 73.2 0 0 0 19.4-6.2 37 37 0 0 0 8.4-5.8 24.9 24.9 0 0 0 5.9-8.1 30 30 0 0 0 2.4-9.8 47 47 0 0 1 .6-5.1 40.7 40.7 0 0 0 .3-5 74.7 74.7 0 0 0-3.9-19.9c-4.3-12.9-11.6-24.7-20.5-35a147 147 0 0 0-30.9-26.3 207.2 207.2 0 0 0-36.5-18.2c-6.3-2.4-12.8-4.6-19.3-6.6a149.2 149.2 0 0 0-19.8-4.5 112 112 0 0 0-40.4 1.2 114.8 114.8 0 0 0-37.3 15.7 136.2 136.2 0 0 0-42.6 43.2c-1.8 2.9-3.4 5.9-4.9 8.9a42.9 42.9 0 0 0-3.3 9.5 14 14 0 0 0 0 5 11.1 11.1 0 0 0 1.9 4.5 18 18 0 0 0 7.9 5.9 46 46 0 0 0 9.8 2.8c3.3.7 6.7 1.1 10.1 1.5l10.2.9a29.8 29.8 0 0 1 5.1.7 31.9 31.9 0 0 1 4.8 1.9 89.3 89.3 0 0 1 8.8 5.3l8.5 5.7a254.5 254.5 0 0 0 35.4 20.5 252.5 252.5 0 0 0 38.4 14.1z"/><path fill="none" stroke="#575068" stroke-linecap="round" stroke-linejoin="round" d="M215.7 295.6l-1.1 1.7a8.8 8.8 0 0 0 6.3 13.1l12.5 2.3a10.4 10.4 0 0 0 4.3 0l13.1-2.3a8.8 8.8 0 0 0 6.3-13.1l-1-1.7"/><circle cx="301" cy="336.3" r="1.9" fill="#575068"/><circle cx="222.3" cy="297.9" r="1.9" fill="#fff"/><circle cx="272.7" cy="281.3" r=".9" fill="#575068"/><circle cx="294.1" cy="283.9" r=".9" fill="#575068"/><ellipse cx="115.3" cy="298.7" fill="#fbfdfe" rx="7.4" ry="8"/><ellipse cx="343.1" cy="303.1" fill="#fbfdfe" rx="7.4" ry="8"/><ellipse cx="354" cy="293.5" fill="#fbfdfe" rx="4.1" ry="4.5"/><ellipse cx="105.2" cy="287.4" fill="#fbfdfe" rx="4.1" ry="4.5"/><path fill="#fbfdfe" d="M96.8 254.9a6.7 6.7 0 0 1-4 2.7 5.7 5.7 0 0 1-7-4.5 6.2 6.2 0 0 1 4-6.6 6 6 0 0 0-1.1 4.3 5.8 5.8 0 0 0 7 4.5z"/><path fill="#eee9f2" d="M285.4 154.8a79.1 79.1 0 0 0 12.7-4.3 88.4 88.4 0 0 0 11.9-6 67.1 67.1 0 0 0 19.6-17.5 53.8 53.8 0 0 0 6.4-11.5 60.8 60.8 0 0 0 3.7-12.6 87.9 87.9 0 0 0 0-26.6 73.1 73.1 0 0 1 1.5 26.8 9.9 9.9 0 0 1-.2 1.7l-.3 1.7c-.3 1.1-.5 2.2-.8 3.3l-.9 3.3-1.2 3.2a55.5 55.5 0 0 1-6.6 11.9 64.2 64.2 0 0 1-20.4 17.7 79.3 79.3 0 0 1-25.4 8.9zm-4.6-8.1a72.1 72.1 0 0 0 8.4-10.9 84.3 84.3 0 0 0 6.7-12.1 77.4 77.4 0 0 0 6.8-26.3c.1-1.1.2-2.3.2-3.4v-3.4c-.1-2.3-.2-4.6-.5-6.8s-.6-4.6-1-6.8-.5-2.2-.7-3.4-.5-2.2-.9-3.3a108.3 108.3 0 0 0-11-25.2 91.8 91.8 0 0 1 12.5 24.8c.4 1.1.7 2.2 1 3.3s.6 2.3.8 3.4a55.4 55.4 0 0 1 1.2 6.9c.3 2.4.4 4.7.5 7V94c0 1.2-.1 2.4-.2 3.5a79.7 79.7 0 0 1-2.4 13.8 86.3 86.3 0 0 1-5 13.1 75.9 75.9 0 0 1-7.3 11.9 56.6 56.6 0 0 1-4.3 5.4 38.6 38.6 0 0 1-4.8 5zm-34.6-2.3c-5.7-9.2-10.9-18.7-15.8-28.3s-9.3-19.6-13.3-29.6c-2-5.1-3.9-10.2-5.5-15.3s-3.2-10.4-4.4-15.7a110 110 0 0 1-2.5-16.1 55.1 55.1 0 0 1 1.1-16.2 57.9 57.9 0 0 0-.1 16.1 107.6 107.6 0 0 0 3.1 15.8c.6 2.6 1.4 5.2 2.1 7.8s1.6 5.1 2.5 7.7c1.7 5.1 3.5 10.1 5.5 15.1s4.1 10 6.2 14.9 4.4 9.9 6.7 14.8c4.6 9.7 9.4 19.4 14.4 29zm-53.1-23.1a72.3 72.3 0 0 1-18.1-7.8 66 66 0 0 1-15.4-12.5A53.7 53.7 0 0 1 149 84.2a49.8 49.8 0 0 1-3.2-19.4 62 62 0 0 0 1.6 9.6c.3 1.6.9 3.1 1.3 4.7l.9 2.3.4 1.1.5 1.1a53.6 53.6 0 0 0 4.6 8.5 61.8 61.8 0 0 0 5.9 7.6 80.4 80.4 0 0 0 14.8 12.5c2.7 1.8 5.5 3.4 8.4 5s5.9 2.9 8.9 4.1zm182.4 168.3a332.7 332.7 0 0 0-3.4 35.9 226.6 226.6 0 0 0 .8 35.9 114.7 114.7 0 0 0 3.2 17.5 54.6 54.6 0 0 0 6.8 16.3 29.8 29.8 0 0 0 2.6 3.6l2.6 3.8a42.3 42.3 0 0 1 4 8.3 46.4 46.4 0 0 1 2.8 18.1 77.2 77.2 0 0 1-3.1 17.9 173.9 173.9 0 0 1-6.1 17.1c-4.5 11.1-9.6 22-13.9 33.2a155.3 155.3 0 0 0-9.6 34.5 102.5 102.5 0 0 0 .8 35.8 100.7 100.7 0 0 1-1.7-35.9c1.5-12 5-23.6 9.2-34.9s9.1-22.3 13.6-33.4a178.3 178.3 0 0 0 5.9-16.9 74.6 74.6 0 0 0 3-17.5 46.1 46.1 0 0 0-2.7-17.3 52.7 52.7 0 0 0-3.9-7.9c-.8-1.3-1.6-2.5-2.5-3.7s-1.8-2.4-2.6-3.7a58.1 58.1 0 0 1-7-16.9 121.9 121.9 0 0 1-3.1-17.9 217.6 217.6 0 0 1-.2-36.1c.4-6 1-12 1.7-18s1.6-11.9 2.8-17.8z"/><path fill="#eee9f2" d="M349.8 318.1a251.7 251.7 0 0 0-4.3 31.2 141.5 141.5 0 0 0 1 31.2 65.2 65.2 0 0 0 4 15 35 35 0 0 0 8.6 12.5 31 31 0 0 1 5.3 6.1 26.4 26.4 0 0 1 3.5 7.4 39.3 39.3 0 0 1 1 16 102.5 102.5 0 0 1-3.6 15.5c-1.6 5-3.5 9.9-5.3 14.8-3.8 9.8-7.8 19.5-11.1 29.5a151.8 151.8 0 0 0-7.1 30.5 91 91 0 0 0 1.9 31.2 86.8 86.8 0 0 1-2.7-31.3 141 141 0 0 1 6.6-30.8c3.2-10.1 7-19.9 10.7-29.7 1.9-4.9 3.7-9.8 5.2-14.8a79.7 79.7 0 0 0 3.5-15.2 37.1 37.1 0 0 0-1-15.2 29.1 29.1 0 0 0-8.2-12.6 36.1 36.1 0 0 1-9-13.2 64.7 64.7 0 0 1-4-15.4 105.8 105.8 0 0 1-1.1-15.8c0-5.3.2-10.6.7-15.8s1.2-10.5 2.1-15.7 2-10.3 3.3-15.4zm-298.3-45q4.7 8.3 8.7 16.8c2.8 5.7 5.4 11.5 7.8 17.3s4.7 11.8 6.6 17.8a141.7 141.7 0 0 1 4.7 18.4 61.1 61.1 0 0 1 .9 9.5 40.5 40.5 0 0 1-.1 4.9 26.7 26.7 0 0 1-.8 4.8 28 28 0 0 1-1.6 4.6 23.9 23.9 0 0 1-1.3 2.1l-1.5 1.9a40.3 40.3 0 0 1-7.1 6.6C57.2 385.3 44.4 388 34 394.7a33.6 33.6 0 0 0-7 6 25.5 25.5 0 0 0-4.4 7.9 29.9 29.9 0 0 0-1.7 9v4.6c.1 1.6.2 3.1.4 4.7a117.3 117.3 0 0 0 4 18.3c1.7 6 3.8 12 6 17.9 4.4 11.8 9.4 23.4 14.3 35 2.4 5.8 4.8 11.6 7 17.6 1 3 2 6 2.8 9a38.9 38.9 0 0 1 .9 4.7 12.3 12.3 0 0 1-.3 4.7 12.3 12.3 0 0 0 .1-4.7 37.8 37.8 0 0 0-1-4.6 93 93 0 0 0-3-8.9c-2.3-5.9-4.8-11.7-7.4-17.4-5.1-11.6-10.3-23.1-14.9-34.9-2.3-5.9-4.4-11.8-6.2-17.9a118.8 118.8 0 0 1-4.1-18.6c-.2-1.6-.3-3.2-.4-4.8s0-1.6-.1-2.4a19.3 19.3 0 0 1 .1-2.4 35.2 35.2 0 0 1 1.7-9.6 24 24 0 0 1 4.8-8.5 32 32 0 0 1 7.3-6.4c5.4-3.5 11.4-5.8 17.2-8.2s11.6-4.9 16.6-8.5a33.5 33.5 0 0 0 6.8-6.2l1.5-1.8a11.8 11.8 0 0 0 1.1-1.9 20.1 20.1 0 0 0 1.6-4.3 32.5 32.5 0 0 0 .7-4.5 35.4 35.4 0 0 0 .2-4.6c-.1-3.1-.4-6.3-.8-9.3a143.4 143.4 0 0 0-4.4-18.3c-1.8-6.1-4-12-6.3-17.8-4.6-11.8-9.9-23.3-15.6-34.5zm83.8 65.5a88.9 88.9 0 0 0-13.6 14.5 64.7 64.7 0 0 0-9.6 17.2 45 45 0 0 0-3 19.2c.2 3.2.7 6.6 1 9.8l1.2 9.9c.7 6.7 1.4 13.3 2 19.9s1.2 13.3 1.5 19.9a190.7 190.7 0 0 1 .1 20 66.4 66.4 0 0 1-1 10 38.9 38.9 0 0 1-2.6 9.6 45.3 45.3 0 0 0 2.1-9.7c.4-3.3.5-6.6.6-9.9.1-6.6-.2-13.3-.7-19.9-1-13.2-2.4-26.4-4-39.6l-1.1-9.9c-.3-3.4-.7-6.6-.9-10a45.2 45.2 0 0 1 3.4-19.9 69.2 69.2 0 0 1 10.2-17.2 96.2 96.2 0 0 1 6.8-7.4 78.9 78.9 0 0 1 7.6-6.5z"/><path fill="#eee9f2" d="M114.6 373.3a93.5 93.5 0 0 0-13.6 14.5 70.2 70.2 0 0 0-9.6 17.1 48.6 48.6 0 0 0-3 19.2c.3 3.3.7 6.6 1.1 9.9l1.1 9.9 2.1 19.9c.6 6.6 1.2 13.2 1.4 19.9s.5 13.3.2 20c-.2 3.3-.5 6.7-1 10a41.7 41.7 0 0 1-2.7 9.6 41 41 0 0 0 2.1-9.7 82.2 82.2 0 0 0 .6-9.9c.1-6.7-.2-13.3-.7-19.9-.9-13.3-2.4-26.5-4-39.7l-1-9.9c-.4-3.3-.8-6.6-1-10a44.8 44.8 0 0 1 3.4-19.8 66.6 66.6 0 0 1 10.3-17.2 95.1 95.1 0 0 1 6.7-7.4 66.9 66.9 0 0 1 7.6-6.5zM301 366a98.1 98.1 0 0 0-9.6 23.8 58 58 0 0 0-1.2 25.2 41.1 41.1 0 0 0 4.2 11.9 42.8 42.8 0 0 0 7.6 9.9c1.6 1.4 3.2 2.8 4.9 4.1l5.3 3.5a61.2 61.2 0 0 1 10.3 8.1 40.3 40.3 0 0 1 7.9 10.4 35.2 35.2 0 0 1 3.7 12.6 44.2 44.2 0 0 1-.6 13.1 90 90 0 0 1-3.4 12.6c-2.8 8.1-6.2 16-9 24.1a91.2 91.2 0 0 0-3.4 12.4 42.3 42.3 0 0 0-.7 12.8 39.9 39.9 0 0 1 .2-12.9 91.3 91.3 0 0 1 3.1-12.5c2.6-8.3 5.9-16.2 8.5-24.4a89.5 89.5 0 0 0 3-12.4 48.5 48.5 0 0 0 .6-12.6 35.7 35.7 0 0 0-3.6-11.9 41.1 41.1 0 0 0-7.7-10 57.8 57.8 0 0 0-10-7.7 66.3 66.3 0 0 1-10.4-7.9 45.2 45.2 0 0 1-7.9-10.5 42.5 42.5 0 0 1-4.3-12.4c-1.5-8.6-.4-17.5 1.9-25.8a77.8 77.8 0 0 1 4.5-12.2A72.6 72.6 0 0 1 301 366z"/></svg>