<svg xmlns="http://www.w3.org/2000/svg" width="4in" height="4in" viewBox="0 0 288 288"><path fill="#f29592" d="M79.4 198.5V78h23.4v120.5zm81.8 1.7a41.4 41.4 0 0 1-17-3.5 40.6 40.6 0 0 1-13.3-9.9 47.2 47.2 0 0 1-8.8-14.7A51 51 0 0 1 119 154a52.3 52.3 0 0 1 3-18 47.2 47.2 0 0 1 8.2-14.6 38 38 0 0 1 12.6-9.9 35.8 35.8 0 0 1 16-3.6 33.5 33.5 0 0 1 17.6 4.8 34.8 34.8 0 0 1 12.3 12.4V74.4h22.8v98c0 2.3.4 4 1.3 5.1s2.5 1.5 4.8 1.7v19.3a61 61 0 0 1-10.9 1.2c-4.2-.1-7.4-1-9.8-2.9a11.9 11.9 0 0 1-4.3-7.6l-.5-6.1a32.7 32.7 0 0 1-13.3 12.8 37.2 37.2 0 0 1-17.6 4.3zm5.9-19.3a21.7 21.7 0 0 0 6.6-1.1 23.4 23.4 0 0 0 6.3-3.2 26.8 26.8 0 0 0 5.3-4.8 18 18 0 0 0 3.6-5.9v-21.3a28.8 28.8 0 0 0-9.5-12.4 22.8 22.8 0 0 0-13.7-4.9 20 20 0 0 0-9.4 2.2 22.8 22.8 0 0 0-7.4 6.1 28 28 0 0 0-4.7 8.7 31.2 31.2 0 0 0 .1 20.6 27.1 27.1 0 0 0 5.2 8.3 24 24 0 0 0 17.6 7.7z"/><path fill="none" stroke="#f29592" stroke-linecap="round" stroke-miterlimit="10" stroke-width="12" d="M19.6 19.3h252v252h-252z"/></svg>