<svg xmlns="http://www.w3.org/2000/svg" width="2in" height="2in" viewBox="0 0 144 144"><path fill="none" stroke="#f5b970" stroke-miterlimit="10" stroke-width="3.54" d="M103.8 48.1s17-15.9 30.9 3.9c16.4 23.4-13.2 45.4-36.1 32.8"/><path d="M49.8 101.2S9.9 104.6 9.9 81.1c.3-30.1 50.8-15.8 79.5.8-44.7-39-84.6-30.9-85.2 1s45.6 18.3 45.6 18.3zm51.9-50.3l-.9-1a1.5 1.5 0 0 1 .1-1.9l3.1-2.8a1.2 1.2 0 0 1 1.8.1l.9 1a1.4 1.4 0 0 1-.1 1.8l-3.1 2.9a1.3 1.3 0 0 1-1.8-.1z"/><path fill="#f5b970" d="M103.3 50.7C90.4 35.8 77.5 40.2 63.9 52l30.5 37.9c17.4-14 19.7-26.7 8.9-39.2z"/><path d="M49 91.3v10.2h13L49 88.1v3.2z"/><path fill="#fff" d="M63.9 52l-.9.8c-9.8 8.7-14 21.4-13.9 31.9v3.4l13 13.4h2.6C75.3 101.7 84 99 93 91l1.4-1.1zm31 8.3l-6.5 5.9a2.7 2.7 0 0 1-3.8-.2h-.1a2.8 2.8 0 0 1 .3-4l6.5-6a2.6 2.6 0 0 1 3.8.3h.1a2.9 2.9 0 0 1-.3 4z"/><path fill="none" stroke="#fff" stroke-miterlimit="10" stroke-width="1.01" d="M78.9 70.6l23.3-21.1"/></svg>