<svg xmlns="http://www.w3.org/2000/svg" width="2in" height="2in" viewBox="0 0 144 144"><title>computer</title><g id="Layer_5" data-name="Layer 5"><path d="M103.8,48.1s17-15.9,30.9,3.9c16.4,23.4-13.2,45.4-36.1,32.8" fill="none" stroke="#f5b970" stroke-miterlimit="10" stroke-width="3.54"/><path d="M49.8,101.2S9.9,104.6,9.9,81.1c.3-30.1,50.8-15.8,79.5.8C44.7,42.9,4.8,51,4.2,82.9S49.8,101.2,49.8,101.2Z"/><path d="M101.7,50.9l-.9-1a1.5,1.5,0,0,1,.1-1.9l3.1-2.8a1.2,1.2,0,0,1,1.8.1l.9,1a1.4,1.4,0,0,1-.1,1.8L103.5,51A1.3,1.3,0,0,1,101.7,50.9Z"/><path d="M103.3,50.7C90.4,35.8,77.5,40.2,63.9,52L94.4,89.9C111.8,75.9,114.1,63.2,103.3,50.7Z" fill="#f5b970"/><polygon points="49 91.3 49 101.5 62 101.5 49 88.1 49 91.3"/><path d="M63.9,52l-.9.8c-9.8,8.7-14,21.4-13.9,31.9v3.4l13,13.4h2.6C75.3,101.7,84,99,93,91l1.4-1.1Z" fill="#fff"/><path d="M94.9,60.3l-6.5,5.9a2.7,2.7,0,0,1-3.8-.2h-.1a2.8,2.8,0,0,1,.3-4L91.3,56a2.6,2.6,0,0,1,3.8.3h.1A2.9,2.9,0,0,1,94.9,60.3Z" fill="#fff"/><line x1="78.9" y1="70.6" x2="102.2" y2="49.5" fill="none" stroke="#fff" stroke-miterlimit="10" stroke-width="1.01"/></g></svg>