<svg xmlns="http://www.w3.org/2000/svg" width="4in" height="4in" viewBox="0 0 288 288"><title>cssthree</title><g id="Layer_8" data-name="Layer 8"><polygon points="200.3 205.8 145.7 220.8 91.7 205.8 78.9 69.3 213 69.3 200.3 205.8" fill="#f29592"/><polygon points="170.2 112.7 145.8 112.7 145.8 130.1 168.4 130.1 170.2 112.7" fill="none" stroke="#f29592" stroke-miterlimit="10" stroke-width="0.9"/><polygon points="166.7 146.6 145.8 146.6 145.8 173.1 164.6 168 166.7 146.6" fill="none" stroke="#f29592" stroke-miterlimit="10" stroke-width="0.9"/><polygon points="145.8 80.4 145.8 96.2 187.7 96.2 186.5 112.7 186.1 112.7 180.2 181.2 162.8 185.7 162.8 185.6 145.8 190.2 145.8 209.3 190.2 196.9 200.9 80.4 145.8 80.4" fill="#fae6e6"/><polygon points="145.7 190.2 145.7 190.2 111.2 180.9 111.2 175.1 109.7 155.1 125.9 155.1 126.9 168 145.7 173.1 145.8 173.1 145.8 146.6 127.1 146.6 126.3 130.1 145.8 130.1 145.8 112.7 105.3 112.7 104.1 96.2 145.8 96.2 145.8 80.4 88.3 80.4 99 196.9 144.4 209.7 145.8 209.3 145.8 190.2 145.7 190.2" fill="none" stroke="#f29592" stroke-miterlimit="10" stroke-width="0.9"/><polygon points="145.7 173.1 126.9 168 125.9 155.1 109.7 155.1 111.2 175.1 111.2 180.9 145.7 190.2 145.7 190.2 145.8 190.2 145.8 173.1 145.7 173.1" fill="#fae6e6"/><polygon points="126.3 130.1 127.1 146.6 145.8 146.6 145.8 130.1 126.3 130.1" fill="#fae6e6"/><polygon points="170.2 112.7 168.4 130.1 145.8 130.1 145.8 146.6 166.7 146.6 164.6 168 145.8 173.1 145.8 190.2 162.8 185.6 162.8 185.7 180.2 181.2 187.1 112.7 188.7 96.2 145.8 96.2 145.8 112.7 170.2 112.7" fill="#fff"/><polygon points="105.3 112.7 145.8 112.7 145.8 96.2 104.1 96.2 105.3 112.7" fill="#fae6e6"/></g><g id="tools"><rect x="20" y="19.3" width="252" height="252" fill="none" stroke="#f29592" stroke-linecap="round" stroke-miterlimit="10" stroke-width="12"/></g></svg>