<svg xmlns="http://www.w3.org/2000/svg" width="4in" height="4in" viewBox="0 0 288 288"><path fill="#f29592" d="M200.3 205.8l-54.6 15-54-15L78.9 69.3H213l-12.7 136.5z"/><path fill="none" stroke="#f29592" stroke-miterlimit="10" stroke-width=".9" d="M170.2 112.7h-24.4v17.4h22.6l1.8-17.4zm-3.5 33.9h-20.9v26.5l18.8-5.1 2.1-21.4z"/><path fill="#fae6e6" d="M145.8 80.4v15.8h41.9l-1.2 16.5h-.4l-5.9 68.5-17.4 4.5v-.1l-17 4.6v19.1l44.4-12.4 10.7-116.5h-55.1z"/><path fill="none" stroke="#f29592" stroke-miterlimit="10" stroke-width=".9" d="M145.7 190.2l-34.5-9.3v-5.8l-1.5-20h16.2l1 12.9 18.8 5.1h.1v-26.5h-18.7l-.8-16.5h19.5v-17.4h-40.5l-1.2-16.5h41.7V80.4H88.3L99 196.9l45.4 12.8 1.4-.4v-19.1h-.1z"/><path fill="#fae6e6" d="M145.7 173.1l-18.8-5.1-1-12.9h-16.2l1.5 20v5.8l34.5 9.3h.1v-17.1h-.1zm-19.4-43l.8 16.5h18.7v-16.5h-19.5z"/><path fill="#fff" d="M170.2 112.7l-1.8 17.4h-22.6v16.5h20.9l-2.1 21.4-18.8 5.1v17.1l17-4.6v.1l17.4-4.5 6.9-68.5 1.6-16.5h-42.9v16.5h24.4z"/><path fill="#fae6e6" d="M105.3 112.7h40.5V96.2h-41.7l1.2 16.5z"/><path fill="none" stroke="#f29592" stroke-linecap="round" stroke-miterlimit="10" stroke-width="12" d="M20 19.3h252v252H20z"/></svg>