<svg xmlns="http://www.w3.org/2000/svg" width="2.2in" height="2.2in" viewBox="0 0 158.4 158.4"><path fill="#ff3b30" stroke="#8e8e93" stroke-linecap="round" stroke-miterlimit="10" stroke-width="5" d="M32.6 42.3l-16.2-16a10.1 10.1 0 0 1 14.2-14.5h.1a9.9 9.9 0 0 1 2 2.8 9.9 9.9 0 0 1 1.5-2.3l.5-.6a10 10 0 1 1 14.1 14.4z"/><path fill="#8e8e93" d="M149.7 128.5l-45.2-.3-35.1 24.2-64.2-.9V51.2l63.3.5 35.8-44 45.4.5v120.3z"/><path fill="none" stroke="#fff" stroke-linecap="round" stroke-miterlimit="10" stroke-width="5" d="M7.3 79h61.2l37.5 27.2h40.2"/><path fill="none" stroke="#fff" stroke-linecap="round" stroke-miterlimit="10" stroke-width="5" d="M52.2 79.7v46.6l-23.8 22.8M7.7 113.7h41.5m42-39.5L123 42.5l23.7-23.8"/><path fill="none" stroke="#fff" stroke-linecap="round" stroke-miterlimit="10" stroke-width="5" d="M145.7 74.2l-39.2-15.3-27 27.3"/><path fill="none" stroke="#fff" stroke-linecap="round" stroke-miterlimit="10" d="M69.2 53.9v97m37-142v118.3"/><circle cx="22.5" cy="20.7" r="1.8" fill="#fff"/></svg>