<svg xmlns="http://www.w3.org/2000/svg" width="4in" height="4in" viewBox="0 0 288 288"><title>hand-made</title><g id="tools"><rect x="18" y="19.3" width="252" height="252" fill="none" stroke="#f29592" stroke-linecap="round" stroke-miterlimit="10" stroke-width="12"/><path d="M136.9,209a2.3,2.3,0,0,0,3.8,0l14.4-19.5H122.5Z" fill="#f29592"/><path d="M158.2,130.8h-.4l.3.2h.1Z" fill="#f29592"/><path d="M158.2,130.8h-.4l.3.2h.1Zm1.6.1h-1.5l.2.2h1.2a4.5,4.5,0,0,0,3.3-1.4A4.7,4.7,0,0,1,159.8,130.9Z" fill="#f29592"/><path d="M198.9,85.7,183.5,144a4.7,4.7,0,0,1-3.1,3.2l-1.3.2a4.3,4.3,0,0,1-3.1-1.2l-17.9-15.3H123L105.5,146a4.8,4.8,0,0,1-3.7,1.7H101a4.6,4.6,0,0,1-3.7-3.3L81.9,85.7a4.1,4.1,0,0,1,.8-3.8,4.6,4.6,0,0,1,3.6-1.7H194.4a4.5,4.5,0,0,1,4.5,5.5Z" fill="#f29592"/><polygon points="126.3 130.9 123 130.9 120.2 133.4 110.9 80.2 117.5 80.1 126.3 130.9" fill="#000"/><polygon points="154.6 131 158 131 160.9 133.4 170.2 80.1 163.5 80.1 154.6 131" fill="#000"/></g></svg>
