<svg xmlns="http://www.w3.org/2000/svg" width="4in" height="4in" viewBox="0 0 288 288"><path fill="none" stroke="#f29592" stroke-linecap="round" stroke-miterlimit="10" stroke-width="12" d="M18 19.3h252v252H18z"/><path fill="#f29592" d="M136.9 209a2.3 2.3 0 0 0 3.8 0l14.4-19.5h-32.6zm21.3-78.2h-.4l.3.2h.1z"/><path fill="#f29592" d="M158.2 130.8h-.4l.3.2h.1zm1.6.1h-1.5l.2.2h1.2a4.5 4.5 0 0 0 3.3-1.4 4.7 4.7 0 0 1-3.2 1.2z"/><path fill="#f29592" d="M198.9 85.7L183.5 144a4.7 4.7 0 0 1-3.1 3.2l-1.3.2a4.3 4.3 0 0 1-3.1-1.2l-17.9-15.3H123L105.5 146a4.8 4.8 0 0 1-3.7 1.7h-.8a4.6 4.6 0 0 1-3.7-3.3L81.9 85.7a4.1 4.1 0 0 1 .8-3.8 4.6 4.6 0 0 1 3.6-1.7h108.1a4.5 4.5 0 0 1 4.5 5.5z"/><path d="M126.3 130.9H123l-2.8 2.5-9.3-53.2 6.6-.1 8.8 50.8zm28.3.1h3.4l2.9 2.4 9.3-53.3h-6.7l-8.9 50.9z"/></svg>