<svg xmlns="http://www.w3.org/2000/svg" width="4in" height="4in" viewBox="0 0 288 288"><title>htmlfive</title><g id="Layer_8" data-name="Layer 8"><polygon points="200.6 205.8 146 220.8 92 205.8 79.3 69.3 213.4 69.3 200.6 205.8" fill="#f29592"/><polygon points="121.9 130.6 145 130.6 145 113.3 120.5 113.3 121.9 130.6" fill="none" stroke="#f29592" stroke-miterlimit="10" stroke-width="0.9"/><polygon points="166.2 147.1 145 147.1 145 174.3 163.8 169.3 166.2 147.1" fill="none" stroke="#f29592" stroke-miterlimit="10" stroke-width="0.9"/><polygon points="144.8 191.5 144.8 191.6 110.2 182.3 110.2 176.3 108.6 156.4 124.9 156.4 126 169.4 144.8 174.4 144.8 174.4 145 174.3 145 147.1 123.2 147.1 123.2 147.4 106.9 147.4 102.9 96.2 119.2 96.2 119.3 96.8 145 96.8 145 80.4 88.6 80.4 99.4 196.9 144.7 209.7 145 209.6 145 191.4 144.8 191.5" fill="#f29592"/><polygon points="145 80.4 145 96.8 187.1 96.8 185.9 113.3 145 113.3 145 130.6 175 130.6 175 130.7 183.7 130.7 179.4 182.5 161.9 187 161.9 186.9 145 191.4 145 209.6 190.5 196.9 201.3 80.4 145 80.4" fill="#fae6e6"/><polygon points="144.8 174.4 144.8 174.4 126 169.4 124.9 156.4 108.6 156.4 110.2 176.3 110.2 182.3 144.8 191.6 144.8 191.5 145 191.4 145 174.3 144.8 174.4" fill="#fae6e6"/><polygon points="119.2 96.2 102.9 96.2 106.9 147.4 123.2 147.4 123.2 147.1 145 147.1 145 130.6 121.9 130.6 120.5 113.3 145 113.3 145 96.8 119.2 96.2" fill="#fae6e6"/><polygon points="185.9 113.3 187.1 96.8 145 96.8 145 113.3 185.9 113.3" fill="#fff"/><polygon points="166.2 147.1 163.8 169.3 145 174.3 145 191.4 161.9 186.9 161.9 187 179.4 182.5 183.7 130.7 175 130.7 175 130.6 145 130.6 145 147.1 166.2 147.1" fill="#fff"/></g><g id="tools"><rect x="20.3" y="19.3" width="252" height="252" fill="none" stroke="#f29592" stroke-linecap="round" stroke-miterlimit="10" stroke-width="12"/></g></svg>