<svg xmlns="http://www.w3.org/2000/svg" width="4in" height="4in" viewBox="0 0 288 288"><path fill="#f29592" d="M200.6 205.8l-54.6 15-54-15L79.3 69.3h134.1l-12.8 136.5z"/><path fill="none" stroke="#f29592" stroke-miterlimit="10" stroke-width=".9" d="M121.9 130.6H145v-17.3h-24.5l1.4 17.3zm44.3 16.5H145v27.2l18.8-5 2.4-22.2z"/><path fill="#f29592" d="M144.8 191.5v.1l-34.6-9.3v-6l-1.6-19.9h16.3l1.1 13 18.8 5 .2-.1v-27.2h-21.8v.3h-16.3l-4-51.2h16.3l.1.6H145V80.4H88.6l10.8 116.5 45.3 12.8.3-.1v-18.2l-.2.1z"/><path fill="#fae6e6" d="M145 80.4v16.4h42.1l-1.2 16.5H145v17.3h30v.1h8.7l-4.3 51.8-17.5 4.5v-.1l-16.9 4.5v18.2l45.5-12.7 10.8-116.5H145z"/><path fill="#fae6e6" d="M144.8 174.4l-18.8-5-1.1-13h-16.3l1.6 19.9v6l34.6 9.3v-.1l.2-.1v-17.1l-.2.1zm-25.6-78.2h-16.3l4 51.2h16.3v-.3H145v-16.5h-23.1l-1.4-17.3H145V96.8l-25.8-.6z"/><path fill="#fff" d="M185.9 113.3l1.2-16.5H145v16.5h40.9zm-19.7 33.8l-2.4 22.2-18.8 5v17.1l16.9-4.5v.1l17.5-4.5 4.3-51.8H175v-.1h-30v16.5h21.2z"/><path fill="none" stroke="#f29592" stroke-linecap="round" stroke-miterlimit="10" stroke-width="12" d="M20.3 19.3h252v252h-252z"/></svg>