<svg xmlns="http://www.w3.org/2000/svg" width="2in" height="2in" viewBox="0 0 144 144"><circle cx="26.8" cy="53.4" r="12.2" stroke="#6b9ed2" stroke-miterlimit="10" stroke-width="5.59"/><circle cx="109.4" cy="71.2" r="20.8" fill="#6b9ed2" stroke="#000" stroke-miterlimit="10" stroke-width="5.59"/><path fill="none" stroke="#000" stroke-linecap="round" stroke-miterlimit="10" stroke-width="2.79" d="M26.6 34.3V18.9H110V42"/><path fill="none" stroke="#427fc2" stroke-miterlimit="10" stroke-width=".56" d="M40.5 33.3v-1.7m0-2.2v-1.7h1.7"/><path fill="none" stroke="#427fc2" stroke-dasharray="3.48 3.48" stroke-miterlimit="10" stroke-width=".56" d="M45.7 27.7h46.9"/><path fill="none" stroke="#427fc2" stroke-miterlimit="10" stroke-width=".56" d="M94.4 27.7H96v1.7"/><path fill="none" stroke="#427fc2" stroke-dasharray="2.64 2.64" stroke-miterlimit="10" stroke-width=".56" d="M96 32.1V36"/><path fill="none" stroke="#427fc2" stroke-miterlimit="10" stroke-width=".56" d="M96 37.3V39"/><path fill="#427fc2" d="M40.5 36.6a16.9 16.9 0 0 1 2.7-4.7l-2.7.9-2.6-.9a19.5 19.5 0 0 1 2.6 4.7z"/><path fill="none" stroke="#000" stroke-miterlimit="10" stroke-width=".56" d="M99.6 102.8v1.7m0 .3v1.7h-1.7"/><path fill="none" stroke="#000" stroke-dasharray="3.48 3.48" stroke-miterlimit="10" stroke-width=".56" d="M94.4 106.5H40.5"/><path fill="none" stroke="#000" stroke-miterlimit="10" stroke-width=".56" d="M38.7 106.5H37v-1.7"/><path fill="none" stroke="#000" stroke-dasharray="3.56 3.56" stroke-miterlimit="10" stroke-width=".56" d="M37 101.3V74.6"/><path fill="none" stroke="#000" stroke-miterlimit="10" stroke-width=".56" d="M37 72.8v-1.7"/><path d="M99.6 98.9l-2.3 5.5 2.3-1.3 2.3 1.3-2.3-5.5z"/><path fill="none" stroke="#000" stroke-linecap="round" stroke-miterlimit="10" stroke-width="2.79" d="M110 100.5v15H26.6V72.4"/></svg>