<svg xmlns="http://www.w3.org/2000/svg" width="2in" height="2in" viewBox="0 0 144 144"><path fill="#231f20" stroke="#fff" stroke-miterlimit="10" stroke-width=".25" d="M131.6 36.3H11.7a2.9 2.9 0 0 0-2.9 2.8v66.3a2.9 2.9 0 0 0 2.9 2.9h119.9a2.9 2.9 0 0 0 3-2.9V39.1a2.9 2.9 0 0 0-3-2.8zm-.3 67.6H12.1V40.7h119.2zm7.9 8.9H4.1a2 2 0 0 0-2.1 2v4.9a2.1 2.1 0 0 0 2.1 2.1h49.2a.5.5 0 0 0 .5-.5v-.8a3.2 3.2 0 0 1 3.2-3.2h29.5a3.2 3.2 0 0 1 3.2 3.2v.8a.5.5 0 0 0 .5.5h49a2.1 2.1 0 0 0 2.1-2.1v-4.9a2 2 0 0 0-2.1-2z"/><path d="M79.9 62.2h7.7a19.7 19.7 0 0 0 1.2-6c-3.1 0-9.6 2.8-12.8 6s-5.3 6.2-5.3 12.1a17.7 17.7 0 0 0 7.6-1.6v-8.8a1.7 1.7 0 0 1 1.6-1.7z"/><path d="M80.6 68.7v3.2a16.8 16.8 0 0 0 3.3-3.2l.3-.3h-3.3a.3.3 0 0 0-.3.3zm.3-4.2c-.2 0-.3.2-.3.4v1.3a.3.3 0 0 0 .3.3h4.5a12.8 12.8 0 0 0 1.1-2zm-10.2 9.8a17.5 17.5 0 0 0-13.1 5.5l-.5.5h5.7a1.9 1.9 0 0 1 1.9 1.9V84c0 .8-.9 1.6-1.5 1.5h-2.3l2.3 2.5a10.6 10.6 0 0 0 2.3-1.7c3.2-3.2 5.2-6.1 5.2-12z"/><path d="M58 85.5v-1.4a.3.3 0 0 1 .3-.3h3.9c.9 0 1.1-.1 1.1-.9 0-.9-.2-.9-1.1-.9H56a21.5 21.5 0 0 0-3.3 10.3c2 0 5.7-1.3 8.9-3.1L58 85.5zm26.3-8.9l-9.8 1.5-1.5 9.7V76.6h11.3z"/><path d="M76.7 80.3c3 0 7.6 5.2 7.6 7.5-2.3 0-7.6-4.5-7.6-7.5zM56.4 59.9c3 0 7.6 5.3 7.6 7.6-2.3 0-7.6-4.5-7.6-7.6z"/><path d="M57.2 72l9.8-1.5 1.5-9.8V72H57.2z"/></svg>