<svg xmlns="http://www.w3.org/2000/svg" width="6in" height="6in" viewBox="0 0 432 432"><circle cx="214.5" cy="217.5" r="201" fill="#fbfdfe"/><path fill="#eee9f2" stroke="#231f20" stroke-miterlimit="10" stroke-width="5" d="M107.506 140.753l5.98-6.041 127.104 125.78-5.979 6.042z"/><path fill="#b4a7c6" stroke="#231f20" stroke-miterlimit="10" stroke-width="5" d="M84.325 123.816l11.958-12.084 18.481 18.289a8.5 8.5 0 0 1 .063 12.02 8.5 8.5 0 0 1-12.02.063l-18.482-18.288z"/><path fill="#575068" stroke="#231f20" stroke-miterlimit="10" stroke-width="5" d="M328.2 346l-5 5.1c-5.8 5.9-13 8.1-15.9 4.8l-82-83.3c-1.9-2.3-1.5-6 1.1-8.5l13.7-13.9c2.5-2.6 6.3-3.1 8.5-1.2l84.2 81.1c3.4 2.8 1.3 10-4.6 15.9zm-239.5-4.8l-5.2-5.2a15 15 0 0 1 .4-21.6l141.6-130.5 15.3 15.3-130.6 141.6a14.9 14.9 0 0 1-21.5.4z"/><path fill="#eee9f2" stroke="#231f20" stroke-miterlimit="10" stroke-width="5" d="M187.723 152.21l46.316-46.315 81.755 81.755-46.315 46.316zM234 105.8l-28.3-28.2-29.6 29.6c-9.2 9.2-4 29.4 11.6 45z"/><path fill="#b4a7c6" stroke="#231f20" stroke-miterlimit="10" stroke-width="5" d="M315.8 187.6l-46.4 46.3c14.4 14.4 33 19.2 41.5 10.7l15.6-15.6c8.5-8.5 3.7-27-10.7-41.4z"/></svg>