<svg xmlns="http://www.w3.org/2000/svg" width="6in" height="6in" viewBox="0 0 432 432"><title>tools</title><g id="Layer_9" data-name="Layer 9"><circle cx="214.5" cy="217.5" r="201" fill="#fbfdfe"/><rect x="169.8" y="111.1" width="8.5" height="178.82" transform="translate(-90.9 183.3) rotate(-45.3)" fill="#eee9f2" stroke="#231f20" stroke-miterlimit="10" stroke-width="5"/><path d="M94.1,112.6h17a0,0,0,0,1,0,0v26a8.5,8.5,0,0,1-8.5,8.5h0a8.5,8.5,0,0,1-8.5-8.5v-26A0,0,0,0,1,94.1,112.6Z" transform="translate(-61.9 111.5) rotate(-45.3)" fill="#b4a7c6" stroke="#231f20" stroke-miterlimit="10" stroke-width="5"/><path d="M328.2,346l-5,5.1c-5.8,5.9-13,8.1-15.9,4.8l-82-83.3c-1.9-2.3-1.5-6,1.1-8.5l13.7-13.9c2.5-2.6,6.3-3.1,8.5-1.2l84.2,81.1C336.2,332.9,334.1,340.1,328.2,346Z" fill="#575068" stroke="#231f20" stroke-miterlimit="10" stroke-width="5"/><path d="M88.7,341.2,83.5,336a15,15,0,0,1,.4-21.6L225.5,183.9l15.3,15.3L110.2,340.8A14.9,14.9,0,0,1,88.7,341.2Z" fill="#575068" stroke="#231f20" stroke-miterlimit="10" stroke-width="5"/><rect x="219" y="112.1" width="65.5" height="115.62" transform="translate(-46.4 227.8) rotate(-45)" fill="#eee9f2" stroke="#231f20" stroke-miterlimit="10" stroke-width="5"/><path d="M234,105.8,205.7,77.6l-29.6,29.6c-9.2,9.2-4,29.4,11.6,45h0Z" fill="#eee9f2" stroke="#231f20" stroke-miterlimit="10" stroke-width="5"/><path d="M315.8,187.6h0l-46.4,46.3h0c14.4,14.4,33,19.2,41.5,10.7L326.5,229C335,220.5,330.2,202,315.8,187.6Z" fill="#b4a7c6" stroke="#231f20" stroke-miterlimit="10" stroke-width="5"/></g></svg>