<svg xmlns="http://www.w3.org/2000/svg" width="2in" height="2in" viewBox="0 0 144 144"><title>type</title><g id="Layer_13" data-name="Layer 13"><path d="M132.7,72.5a73.1,73.1,0,0,1-4.3,24.8,68.8,68.8,0,0,1-12.1,21.9,61.4,61.4,0,0,1-19,15.6,52.9,52.9,0,0,1-25.1,6,53.7,53.7,0,0,1-24.6-5.6A61.2,61.2,0,0,1,28.5,120,69,69,0,0,1,16.1,98.2a77.1,77.1,0,0,1-4.4-25.7A73.1,73.1,0,0,1,16,47.7,71.7,71.7,0,0,1,28,25.8,60.1,60.1,0,0,1,47.1,10.3,53.7,53.7,0,0,1,72.2,4.4a52.5,52.5,0,0,1,24.4,5.7,61.7,61.7,0,0,1,19.1,15,72.1,72.1,0,0,1,12.5,21.8A73.8,73.8,0,0,1,132.7,72.5Z" fill="#fff"/><path d="M79.7,30.4H72.1V49.8H70V30.4H62.4V28.5H79.7Z" stroke="#000" stroke-miterlimit="10"/><path d="M64,95.3l7,11.5,7-11.5h2.3L72,108.7v7.9H69.9v-7.9L61.7,95.3Z" stroke="#000" stroke-miterlimit="10"/><path d="M33.6,84.7V63.4h8.9A5.4,5.4,0,0,1,45,64a5.9,5.9,0,0,1,2,1.5,7.4,7.4,0,0,1,1.3,2.1,7,7,0,0,1,.5,2.5,7.4,7.4,0,0,1-.5,2.5,7.2,7.2,0,0,1-1.2,2.1,4.8,4.8,0,0,1-2,1.5,4.9,4.9,0,0,1-2.5.6H35.7v7.9Zm2.1-9.8h6.8a3.3,3.3,0,0,0,1.7-.4,3.2,3.2,0,0,0,1.3-1,5.1,5.1,0,0,0,.9-1.6,5.7,5.7,0,0,0,.3-1.8,5.8,5.8,0,0,0-.4-1.9,5.1,5.1,0,0,0-.9-1.6,7.1,7.1,0,0,0-1.4-1,4.7,4.7,0,0,0-1.7-.4H35.7Z" stroke="#000" stroke-miterlimit="10"/><path d="M109.6,82.8v1.9H95.3V63.4h14v1.8h-12v7.7h10.5v1.8H97.3v8.1Z" stroke="#000" stroke-miterlimit="10"/><line x1="101.5" y1="43.9" x2="42.2" y2="103.3" fill="none" stroke="#f29592" stroke-linecap="round" stroke-miterlimit="10" stroke-width="2"/><line x1="44" y1="45.7" x2="99.7" y2="101.5" fill="none" stroke="#f29592" stroke-linecap="round" stroke-miterlimit="10" stroke-width="2"/></g></svg>