<svg xmlns="http://www.w3.org/2000/svg" width="2in" height="2in" viewBox="0 0 144 144"><path fill="#fff" d="M132.7 72.5a73.1 73.1 0 0 1-4.3 24.8 68.8 68.8 0 0 1-12.1 21.9 61.4 61.4 0 0 1-19 15.6 52.9 52.9 0 0 1-25.1 6 53.7 53.7 0 0 1-24.6-5.6A61.2 61.2 0 0 1 28.5 120a69 69 0 0 1-12.4-21.8 77.1 77.1 0 0 1-4.4-25.7A73.1 73.1 0 0 1 16 47.7a71.7 71.7 0 0 1 12-21.9 60.1 60.1 0 0 1 19.1-15.5 53.7 53.7 0 0 1 25.1-5.9 52.5 52.5 0 0 1 24.4 5.7 61.7 61.7 0 0 1 19.1 15 72.1 72.1 0 0 1 12.5 21.8 73.8 73.8 0 0 1 4.5 25.6z"/><path stroke="#000" stroke-miterlimit="10" d="M79.7 30.4h-7.6v19.4H70V30.4h-7.6v-1.9h17.3zM64 95.3l7 11.5 7-11.5h2.3L72 108.7v7.9h-2.1v-7.9l-8.2-13.4zM33.6 84.7V63.4h8.9a5.4 5.4 0 0 1 2.5.6 5.9 5.9 0 0 1 2 1.5 7.4 7.4 0 0 1 1.3 2.1 7 7 0 0 1 .5 2.5 7.4 7.4 0 0 1-.5 2.5 7.2 7.2 0 0 1-1.2 2.1 4.8 4.8 0 0 1-2 1.5 4.9 4.9 0 0 1-2.5.6h-6.9v7.9zm2.1-9.8h6.8a3.3 3.3 0 0 0 1.7-.4 3.2 3.2 0 0 0 1.3-1 5.1 5.1 0 0 0 .9-1.6 5.7 5.7 0 0 0 .3-1.8 5.8 5.8 0 0 0-.4-1.9 5.1 5.1 0 0 0-.9-1.6 7.1 7.1 0 0 0-1.4-1 4.7 4.7 0 0 0-1.7-.4h-6.6zm73.9 7.9v1.9H95.3V63.4h14v1.8h-12v7.7h10.5v1.8H97.3v8.1z"/><path fill="none" stroke="#f29592" stroke-linecap="round" stroke-miterlimit="10" stroke-width="2" d="M101.5 43.9l-59.3 59.4M44 45.7l55.7 55.8"/></svg>