<svg xmlns="http://www.w3.org/2000/svg" width="4in" height="4in" viewBox="0 0 288 288"><path fill="#f29592" d="M62.5 77.8l30 44.9 30-44.9h25.3l-43 61.2 41.6 59.5h-25.3l-28.6-43.2-28.7 43.2H38.3L80 139 37 77.8z"/><path fill="#f29592" d="M187.9 200.2a39.7 39.7 0 0 1-16.9-3.6 38.1 38.1 0 0 1-13.3-9.8 45.3 45.3 0 0 1-8.8-14.7 51.4 51.4 0 0 1-3.1-18.1 52.3 52.3 0 0 1 2.9-18 48 48 0 0 1 8.3-14.7 37.7 37.7 0 0 1 12.6-9.8 35.4 35.4 0 0 1 15.9-3.6 33 33 0 0 1 17.6 4.8 34.3 34.3 0 0 1 12.4 12.4V74.4h22.7v97.9c0 2.4.5 4.1 1.4 5.1s2.5 1.6 4.8 1.7v19.4a62.9 62.9 0 0 1-10.9 1.2c-4.2-.1-7.5-1.1-9.8-2.9a11.7 11.7 0 0 1-4.3-7.6l-.5-6.2a33 33 0 0 1-13.3 12.9 37.9 37.9 0 0 1-17.7 4.3zm6-19.4a19.8 19.8 0 0 0 6.6-1.1 23.1 23.1 0 0 0 6.3-3.1 34.3 34.3 0 0 0 5.3-4.8 20.9 20.9 0 0 0 3.5-5.9v-21.3a27.3 27.3 0 0 0-9.4-12.4 22.3 22.3 0 0 0-13.7-4.9 20 20 0 0 0-9.4 2.2 22.8 22.8 0 0 0-7.4 6 27.8 27.8 0 0 0-4.8 8.8 32.1 32.1 0 0 0-1.7 10.2 27.5 27.5 0 0 0 1.9 10.4 26.5 26.5 0 0 0 5.2 8.3 24.3 24.3 0 0 0 7.8 5.6 22.9 22.9 0 0 0 9.8 2z"/><path fill="none" stroke="#f29592" stroke-linecap="round" stroke-miterlimit="10" stroke-width="12" d="M18.1 19.3h252v252h-252z"/></svg>